<svg width="291" height="200" viewBox="0 0 291 200" fill="none" xmlns="http://www.w3.org/2000/svg">
<path d="M22.2656 90.375C22.1094 88.2188 21.9531 86.0469 21.7969 83.8594C21.6719 81.6719 21.5156 79.4688 21.3281 77.25C19.9531 77.1562 18.625 77.0625 17.3438 76.9688C16.0625 76.875 14.7656 76.8281 13.4531 76.8281H12.8438C12.6875 79.0781 12.5469 81.2969 12.4219 83.4844C12.2969 85.6719 12.1875 87.8438 12.0938 90L0.375 89.8125C2.3125 78.6562 4.0625 67.5312 5.625 56.4375C7.1875 45.3438 8.51562 34.1562 9.60938 22.875L23.7188 23.1094C24.9062 34.2656 26.3281 45.3594 27.9844 56.3906C29.6719 67.3906 31.6406 78.4688 33.8906 89.625L22.2656 90.375ZM16.7812 34.6875C16.1562 40.4375 15.5625 46.1719 15 51.8906C14.4375 57.6094 13.9219 63.375 13.4531 69.1875C14.1094 69.25 14.7812 69.2812 15.4688 69.2812C16.1562 69.2812 16.8594 69.2812 17.5781 69.2812H20.625C20.0938 63.4688 19.5 57.7031 18.8438 51.9844C18.1875 46.2656 17.5 40.5 16.7812 34.6875ZM66.3937 22.6875C63.5812 32.2188 60.9719 41.7031 58.5656 51.1406C56.1906 60.5781 54.1594 70.0781 52.4719 79.6406C52.8469 79.7031 53.2219 79.7188 53.5969 79.6875C54.0031 79.6562 54.425 79.6406 54.8625 79.6406C56.55 79.6406 58.2062 79.6094 59.8312 79.5469C61.4875 79.4531 63.1594 79.3281 64.8469 79.1719L65.0344 90.0938C61.7531 89.75 58.4875 89.5156 55.2375 89.3906C51.9875 89.2344 48.6594 89.1562 45.2531 89.1562C44.1594 89.1562 43.0344 89.1562 41.8781 89.1562C40.7531 89.1562 39.6437 89.1875 38.55 89.25C41.7687 79.9688 44.7375 70.5781 47.4562 61.0781C50.175 51.5781 52.5187 41.8281 54.4875 31.8281C52.3312 31.9219 50.1594 32.0781 47.9719 32.2969C45.8156 32.5156 43.5969 32.7812 41.3156 33.0938L41.0344 22.7812C42.9719 22.875 44.8937 22.9531 46.8 23.0156C48.7062 23.0781 50.6281 23.1094 52.5656 23.1094C57.1906 23.1094 61.8 22.9688 66.3937 22.6875ZM99.3187 22.6875C96.5062 32.2188 93.8969 41.7031 91.4906 51.1406C89.1156 60.5781 87.0844 70.0781 85.3969 79.6406C85.7719 79.7031 86.1469 79.7188 86.5219 79.6875C86.9281 79.6562 87.35 79.6406 87.7875 79.6406C89.475 79.6406 91.1312 79.6094 92.7562 79.5469C94.4125 79.4531 96.0844 79.3281 97.7719 79.1719L97.9594 90.0938C94.6781 89.75 91.4125 89.5156 88.1625 89.3906C84.9125 89.2344 81.5844 89.1562 78.1781 89.1562C77.0844 89.1562 75.9594 89.1562 74.8031 89.1562C73.6781 89.1562 72.5687 89.1875 71.475 89.25C74.6937 79.9688 77.6625 70.5781 80.3812 61.0781C83.1 51.5781 85.4437 41.8281 87.4125 31.8281C85.2562 31.9219 83.0844 32.0781 80.8969 32.2969C78.7406 32.5156 76.5219 32.7812 74.2406 33.0938L73.9594 22.7812C75.8969 22.875 77.8187 22.9531 79.725 23.0156C81.6312 23.0781 83.5531 23.1094 85.4906 23.1094C90.1156 23.1094 94.725 22.9688 99.3187 22.6875ZM126.759 90.375C126.603 88.2188 126.447 86.0469 126.291 83.8594C126.166 81.6719 126.009 79.4688 125.822 77.25C124.447 77.1562 123.119 77.0625 121.838 76.9688C120.556 76.875 119.259 76.8281 117.947 76.8281H117.338C117.181 79.0781 117.041 81.2969 116.916 83.4844C116.791 85.6719 116.681 87.8438 116.588 90L104.869 89.8125C106.806 78.6562 108.556 67.5312 110.119 56.4375C111.681 45.3438 113.009 34.1562 114.103 22.875L128.213 23.1094C129.4 34.2656 130.822 45.3594 132.478 56.3906C134.166 67.3906 136.134 78.4688 138.384 89.625L126.759 90.375ZM121.275 34.6875C120.65 40.4375 120.056 46.1719 119.494 51.8906C118.931 57.6094 118.416 63.375 117.947 69.1875C118.603 69.25 119.275 69.2812 119.963 69.2812C120.65 69.2812 121.353 69.2812 122.072 69.2812H125.119C124.588 63.4688 123.994 57.7031 123.338 51.9844C122.681 46.2656 121.994 40.5 121.275 34.6875ZM179.419 90.0938C179.512 85.3125 179.622 80.4531 179.747 75.5156C179.778 73.4219 179.809 71.2031 179.841 68.8594C179.903 66.5156 179.95 64.1406 179.981 61.7344C180.012 59.3281 180.028 56.9219 180.028 54.5156C180.059 52.1094 180.075 49.7969 180.075 47.5781C180.075 46.1094 180.075 44.7188 180.075 43.4062C180.075 42.0625 180.044 40.7969 179.981 39.6094C179.606 41.9219 179.122 44.9062 178.528 48.5625C177.966 52.1875 177.372 56.2031 176.747 60.6094C176.122 64.9844 175.497 69.625 174.872 74.5312C174.278 79.4375 173.747 84.3125 173.278 89.1562L164.372 88.9219C163.622 84.0469 162.887 79.25 162.169 74.5312C161.481 69.8125 160.809 65.3281 160.153 61.0781C159.528 56.8281 158.95 52.8906 158.419 49.2656C157.887 45.6406 157.434 42.4844 157.059 39.7969V56.1094C157.059 59.4844 157.075 62.8906 157.106 66.3281C157.137 69.7344 157.169 72.9531 157.2 75.9844C157.262 79.0156 157.341 81.75 157.434 84.1875C157.528 86.5938 157.653 88.4688 157.809 89.8125L145.059 90.5625C145.528 87.9062 145.903 84.9219 146.184 81.6094C146.497 78.2969 146.731 74.8281 146.887 71.2031C147.075 67.5781 147.2 63.8906 147.262 60.1406C147.325 56.3906 147.356 52.75 147.356 49.2188C147.356 45.5938 147.325 42.2031 147.262 39.0469C147.231 35.8906 147.184 33.125 147.122 30.75C147.028 27.9688 146.95 25.4219 146.887 23.1094C147.887 23.2656 148.934 23.4062 150.028 23.5312C151.122 23.625 152.2 23.7031 153.262 23.7656C154.325 23.8281 155.356 23.875 156.356 23.9062C157.356 23.9375 158.262 23.9531 159.075 23.9531C159.606 23.9531 160.091 23.9531 160.528 23.9531C160.997 23.9531 161.403 23.9375 161.747 23.9062C162.122 23.9062 162.45 23.8906 162.731 23.8594C164.231 34.2344 165.497 42.9844 166.528 50.1094C167.559 57.2344 168.372 62.6562 168.966 66.375C169.309 64 169.637 61.5625 169.95 59.0625C170.294 56.5312 170.606 54.0312 170.887 51.5625C171.169 49.0938 171.419 46.6875 171.637 44.3438C171.887 41.9688 172.106 39.7344 172.294 37.6406C172.731 32.7031 173.122 27.9219 173.466 23.2969C174.153 23.3594 174.903 23.4219 175.716 23.4844C176.434 23.5469 177.278 23.5937 178.247 23.625C179.247 23.6563 180.341 23.6719 181.528 23.6719C182.716 23.6719 183.997 23.6563 185.372 23.625C186.747 23.5625 188.184 23.4531 189.684 23.2969C189.309 34.9844 189.122 45.0938 189.122 53.625C189.122 59.9062 189.184 65.3125 189.309 69.8438C189.466 74.375 189.622 78.125 189.778 81.0938C189.966 84.5938 190.2 87.5 190.481 89.8125L179.419 90.0938Z" fill="black"/>
<path d="M43.6875 118.969C43.6875 120.76 43.4479 122.521 42.9688 124.25C42.5104 125.958 41.7917 127.542 40.8125 129C39.8542 130.458 38.6354 131.75 37.1562 132.875C35.6771 133.979 33.9271 134.823 31.9062 135.406C31.9479 137.927 32 140.427 32.0625 142.906C32.1458 145.365 32.2396 147.812 32.3438 150.25H24.7188C25.0521 145.521 25.2917 140.792 25.4375 136.062C25.6042 131.333 25.6875 126.573 25.6875 121.781C25.6875 119.01 25.6667 116.25 25.625 113.5C25.5833 110.729 25.5 107.938 25.375 105.125C26.4792 104.792 27.5938 104.573 28.7188 104.469C29.8646 104.365 30.8333 104.312 31.625 104.312C32.1875 104.312 32.875 104.375 33.6875 104.5C34.5208 104.625 35.375 104.875 36.25 105.25C37.1458 105.604 38.0312 106.115 38.9062 106.781C39.8021 107.427 40.6042 108.302 41.3125 109.406C42.0208 110.49 42.5938 111.812 43.0312 113.375C43.4688 114.938 43.6875 116.802 43.6875 118.969ZM31.9062 130.094C32.5938 129.844 33.1875 129.51 33.6875 129.094C34.2083 128.677 34.6562 128.219 35.0312 127.719C35.4271 127.198 35.75 126.646 36 126.062C36.2708 125.479 36.4896 124.906 36.6562 124.344C37.0521 123.031 37.2812 121.604 37.3438 120.062C37.3438 120.042 37.3333 119.802 37.3125 119.344C37.3125 118.885 37.2604 118.312 37.1562 117.625C37.0729 116.917 36.9271 116.146 36.7188 115.312C36.5104 114.458 36.2188 113.646 35.8438 112.875C35.4896 112.104 35.0208 111.417 34.4375 110.812C33.875 110.188 33.1771 109.75 32.3438 109.5C32.1771 112.729 32.0625 115.969 32 119.219C31.9375 122.448 31.9062 125.708 31.9062 129V130.094ZM70.6688 128.125C70.6688 132.312 70.3771 135.865 69.7938 138.781C69.2313 141.698 68.4604 144.073 67.4813 145.906C66.5021 147.719 65.3458 149.042 64.0125 149.875C62.6792 150.688 61.2521 151.094 59.7313 151.094C58.2104 151.094 56.7833 150.708 55.45 149.938C54.1167 149.146 52.95 147.854 51.95 146.062C50.95 144.271 50.1583 141.906 49.575 138.969C49.0125 136.031 48.7313 132.417 48.7313 128.125C48.7313 123.812 49.0125 120.156 49.575 117.156C50.1583 114.135 50.95 111.688 51.95 109.812C52.95 107.917 54.1167 106.552 55.45 105.719C56.7833 104.865 58.2104 104.438 59.7313 104.438C61.2521 104.438 62.6792 104.854 64.0125 105.688C65.3458 106.5 66.5021 107.844 67.4813 109.719C68.4604 111.594 69.2313 114.042 69.7938 117.062C70.3771 120.062 70.6688 123.75 70.6688 128.125ZM63.7 128.125C63.7 124.854 63.5958 122.094 63.3875 119.844C63.1792 117.594 62.8875 115.771 62.5125 114.375C62.1583 112.958 61.7417 111.938 61.2625 111.312C60.7833 110.688 60.2729 110.375 59.7313 110.375C59.1688 110.375 58.6375 110.698 58.1375 111.344C57.6583 111.969 57.2313 112.99 56.8563 114.406C56.5021 115.802 56.2208 117.635 56.0125 119.906C55.8042 122.156 55.7 124.896 55.7 128.125C55.7 131.333 55.8042 134.031 56.0125 136.219C56.2208 138.385 56.5021 140.135 56.8563 141.469C57.2313 142.781 57.6583 143.719 58.1375 144.281C58.6375 144.844 59.1688 145.125 59.7313 145.125C60.2729 145.125 60.7833 144.833 61.2625 144.25C61.7417 143.646 62.1583 142.677 62.5125 141.344C62.8875 139.99 63.1792 138.229 63.3875 136.062C63.5958 133.896 63.7 131.25 63.7 128.125ZM95.5563 118.5C95.5563 119.896 95.4208 121.302 95.15 122.719C94.9 124.115 94.4833 125.469 93.9 126.781C93.3167 128.073 92.5667 129.292 91.65 130.438C90.7333 131.562 89.6083 132.562 88.275 133.438C89.4417 136.417 90.7229 139.281 92.1188 142.031C93.5354 144.76 95.1083 147.396 96.8375 149.938L89.025 150.375L83.7125 135.281C83.7958 137.823 83.9 140.344 84.025 142.844C84.15 145.344 84.3063 147.812 84.4938 150.25H76.8688C77.2021 145.521 77.4417 140.792 77.5875 136.062C77.7542 131.333 77.8375 126.573 77.8375 121.781C77.8375 119.01 77.8167 116.25 77.775 113.5C77.7333 110.729 77.65 107.938 77.525 105.125C78.6292 104.792 79.7438 104.573 80.8688 104.469C82.0146 104.365 82.9833 104.312 83.775 104.312C84.3375 104.312 85.0146 104.375 85.8063 104.5C86.6188 104.604 87.4625 104.833 88.3375 105.188C89.2125 105.542 90.0771 106.042 90.9313 106.688C91.8063 107.333 92.5771 108.188 93.2438 109.25C93.9313 110.292 94.4833 111.573 94.9 113.094C95.3375 114.594 95.5563 116.396 95.5563 118.5ZM83.65 130.219C84.3792 130.01 85.0146 129.708 85.5563 129.312C86.1188 128.896 86.6083 128.427 87.025 127.906C87.4417 127.385 87.7854 126.833 88.0563 126.25C88.3479 125.667 88.5875 125.083 88.775 124.5C89.1917 123.146 89.4313 121.667 89.4938 120.062C89.4938 120.021 89.4833 119.771 89.4625 119.312C89.4625 118.833 89.4104 118.24 89.3063 117.531C89.2021 116.823 89.0458 116.052 88.8375 115.219C88.65 114.385 88.3688 113.583 87.9938 112.812C87.6188 112.021 87.1396 111.323 86.5563 110.719C85.9729 110.115 85.2646 109.688 84.4313 109.438C84.1813 112.708 83.9833 115.969 83.8375 119.219C83.7125 122.448 83.65 125.708 83.65 129V130.219ZM117.506 111.656C116.84 111.615 116.069 111.583 115.194 111.562C114.34 111.542 113.423 111.531 112.444 111.531C112.298 113.469 112.173 115.479 112.069 117.562C111.985 119.625 111.912 121.729 111.85 123.875C111.787 126 111.746 128.146 111.725 130.312C111.704 132.458 111.694 134.583 111.694 136.688C111.694 139.083 111.704 141.406 111.725 143.656C111.767 145.885 111.84 148.042 111.944 150.125H105.287C105.475 146.583 105.621 142.812 105.725 138.812C105.829 134.812 105.881 130.781 105.881 126.719C105.881 124.073 105.85 121.49 105.787 118.969C105.725 116.448 105.662 113.99 105.6 111.594C104.6 111.594 103.652 111.604 102.756 111.625C101.86 111.646 101.058 111.677 100.35 111.719L100.412 105.188C101.162 105.25 102.006 105.302 102.944 105.344C103.881 105.365 104.86 105.385 105.881 105.406C106.923 105.427 107.985 105.448 109.069 105.469C110.152 105.469 111.215 105.469 112.256 105.469C113.298 105.469 114.277 105.469 115.194 105.469C116.131 105.469 116.965 105.448 117.694 105.406L117.506 111.656Z" fill="black"/>
<path d="M141.172 154.922C140.203 154.859 139.219 154.812 138.219 154.781C137.219 154.75 136.219 154.734 135.219 154.734C134.688 154.734 134.141 154.75 133.578 154.781C133.016 154.812 132.469 154.828 131.938 154.828L132.547 180.375C131.828 180.281 131.047 180.219 130.203 180.188C129.391 180.188 128.594 180.188 127.812 180.188C127.031 180.188 126.297 180.188 125.609 180.188C124.953 180.219 124.359 180.25 123.828 180.281C123.234 180.312 122.656 180.344 122.094 180.375C122.375 174.562 122.594 168.812 122.75 163.125C122.938 157.406 123.031 151.641 123.031 145.828C123.031 140.266 122.953 134.75 122.797 129.281C122.672 123.781 122.438 118.25 122.094 112.688C125.781 112.969 129.297 113.109 132.641 113.109C134.766 113.109 136.875 113.062 138.969 112.969C141.094 112.844 143.359 112.688 145.766 112.5V123.281C143.828 122.938 141.906 122.672 140 122.484C138.125 122.297 136.25 122.203 134.375 122.203H132.547C132.297 125.703 132.125 129.234 132.031 132.797C131.969 136.359 131.938 140 131.938 143.719V145.547C132.719 145.609 133.5 145.641 134.281 145.641C135.062 145.641 135.859 145.641 136.672 145.641C137.391 145.641 138.125 145.641 138.875 145.641C139.625 145.641 140.391 145.609 141.172 145.547V154.922ZM185.722 147.188C185.722 153.469 185.284 158.797 184.409 163.172C183.566 167.547 182.409 171.109 180.941 173.859C179.472 176.578 177.737 178.562 175.737 179.812C173.737 181.031 171.597 181.641 169.316 181.641C167.034 181.641 164.894 181.062 162.894 179.906C160.894 178.719 159.144 176.781 157.644 174.094C156.144 171.406 154.956 167.859 154.081 163.453C153.237 159.047 152.816 153.625 152.816 147.188C152.816 140.719 153.237 135.234 154.081 130.734C154.956 126.203 156.144 122.531 157.644 119.719C159.144 116.875 160.894 114.828 162.894 113.578C164.894 112.297 167.034 111.656 169.316 111.656C171.597 111.656 173.737 112.281 175.737 113.531C177.737 114.75 179.472 116.766 180.941 119.578C182.409 122.391 183.566 126.062 184.409 130.594C185.284 135.094 185.722 140.625 185.722 147.188ZM175.269 147.188C175.269 142.281 175.112 138.141 174.8 134.766C174.487 131.391 174.05 128.656 173.487 126.562C172.956 124.438 172.331 122.906 171.612 121.969C170.894 121.031 170.128 120.562 169.316 120.562C168.472 120.562 167.675 121.047 166.925 122.016C166.206 122.953 165.566 124.484 165.003 126.609C164.472 128.703 164.05 131.453 163.737 134.859C163.425 138.234 163.269 142.344 163.269 147.188C163.269 152 163.425 156.047 163.737 159.328C164.05 162.578 164.472 165.203 165.003 167.203C165.566 169.172 166.206 170.578 166.925 171.422C167.675 172.266 168.472 172.688 169.316 172.688C170.128 172.688 170.894 172.25 171.612 171.375C172.331 170.469 172.956 169.016 173.487 167.016C174.05 164.984 174.487 162.344 174.8 159.094C175.112 155.844 175.269 151.875 175.269 147.188ZM220.1 180.094C218.35 180.031 216.647 179.984 214.991 179.953C213.366 179.922 211.741 179.906 210.116 179.906C207.678 179.906 205.272 179.938 202.897 180C200.522 180.094 198.069 180.219 195.537 180.375C195.819 174.562 196.037 168.812 196.194 163.125C196.381 157.406 196.475 151.641 196.475 145.828C196.475 140.266 196.397 134.75 196.241 129.281C196.116 123.781 195.881 118.25 195.537 112.688C195.85 112.719 196.209 112.734 196.616 112.734C196.959 112.766 197.381 112.781 197.881 112.781C198.381 112.781 198.944 112.781 199.569 112.781C200.569 112.781 201.647 112.766 202.803 112.734C203.991 112.672 205.178 112.594 206.366 112.5C205.959 117 205.662 121.734 205.475 126.703C205.319 131.672 205.209 136.703 205.147 141.797C205.116 146.859 205.084 151.922 205.053 156.984C205.053 162.016 205.006 166.875 204.912 171.562C207.475 171.5 209.959 171.375 212.366 171.188C214.803 171 217.381 170.703 220.1 170.297V180.094ZM247.259 179.344C246.009 179.281 244.759 179.234 243.509 179.203C242.259 179.172 241.009 179.156 239.759 179.156C237.697 179.156 235.634 179.203 233.572 179.297C231.509 179.359 229.447 179.469 227.384 179.625L227.478 169.547C228.197 169.641 228.916 169.719 229.634 169.781C230.353 169.812 231.072 169.859 231.791 169.922C231.978 165.078 232.15 160.266 232.306 155.484C232.494 150.672 232.588 145.859 232.588 141.047C232.588 137.828 232.541 134.656 232.447 131.531C232.353 128.375 232.259 125.203 232.166 122.016C231.353 122.016 230.525 122.031 229.681 122.062C228.838 122.094 227.978 122.141 227.103 122.203L227.197 112.406C229.603 112.562 232.009 112.688 234.416 112.781C236.822 112.844 239.244 112.875 241.681 112.875C242.556 112.875 243.431 112.875 244.306 112.875C245.181 112.875 246.072 112.844 246.978 112.781L246.697 122.109C245.978 122.109 245.259 122.094 244.541 122.062C243.853 122.031 243.15 122.016 242.431 122.016C241.994 127.641 241.681 133.234 241.494 138.797C241.306 144.328 241.213 149.906 241.213 155.531C241.213 160.438 241.306 165.328 241.494 170.203C242.494 170.203 243.509 170.188 244.541 170.156C245.603 170.125 246.666 170.078 247.728 170.016L247.259 179.344ZM288.153 147.188C288.153 153.469 287.716 158.797 286.841 163.172C285.997 167.547 284.841 171.109 283.372 173.859C281.903 176.578 280.169 178.562 278.169 179.812C276.169 181.031 274.028 181.641 271.747 181.641C269.466 181.641 267.325 181.062 265.325 179.906C263.325 178.719 261.575 176.781 260.075 174.094C258.575 171.406 257.387 167.859 256.512 163.453C255.669 159.047 255.247 153.625 255.247 147.188C255.247 140.719 255.669 135.234 256.512 130.734C257.387 126.203 258.575 122.531 260.075 119.719C261.575 116.875 263.325 114.828 265.325 113.578C267.325 112.297 269.466 111.656 271.747 111.656C274.028 111.656 276.169 112.281 278.169 113.531C280.169 114.75 281.903 116.766 283.372 119.578C284.841 122.391 285.997 126.062 286.841 130.594C287.716 135.094 288.153 140.625 288.153 147.188ZM277.7 147.188C277.7 142.281 277.544 138.141 277.231 134.766C276.919 131.391 276.481 128.656 275.919 126.562C275.387 124.438 274.762 122.906 274.044 121.969C273.325 121.031 272.559 120.562 271.747 120.562C270.903 120.562 270.106 121.047 269.356 122.016C268.637 122.953 267.997 124.484 267.434 126.609C266.903 128.703 266.481 131.453 266.169 134.859C265.856 138.234 265.7 142.344 265.7 147.188C265.7 152 265.856 156.047 266.169 159.328C266.481 162.578 266.903 165.203 267.434 167.203C267.997 169.172 268.637 170.578 269.356 171.422C270.106 172.266 270.903 172.688 271.747 172.688C272.559 172.688 273.325 172.25 274.044 171.375C274.762 170.469 275.387 169.016 275.919 167.016C276.481 164.984 276.919 162.344 277.231 159.094C277.544 155.844 277.7 151.875 277.7 147.188Z" fill="black"/>
</svg>
